<svg width="192" height="192" fill="none" xmlns="http://www.w3.org/2000/svg">
  <g clip-path="url(#Verification-Failed__clip0)">
    <path fill="#fff" d="M0 0h192v192H0z"/>
    <path d="M179.136 43.856c13.858 27.184-30.283 102.702-64.63 94.742-34.346-7.961-64.221-46.935-64.685-62.511-.465-15.576 5.692-48.734 27.52-57.128 33.456-12.867 87.938-2.287 101.795 24.897z" fill="#FEFBF6"/>
    <mask id="a" maskUnits="userSpaceOnUse" x="13" y="36" width="171" height="122">
      <path d="M179.952 82.135c20.692 25.113-49.161 78.269-80.248 75.704-31.087-2.566-74.343-39.23-80.022-54.801-5.679-15.572-11.864-49.848 3.319-61.73 23.27-18.213 136.258 15.714 156.951 40.827z" fill="#FEF2E4"/>
    </mask>
    <g mask="url(#a)">
      <path d="M179.952 85.135c20.692 25.113-49.161 78.269-80.248 75.704-31.087-2.566-74.343-39.23-80.022-54.801-5.679-15.572-11.864-49.848 3.319-61.73 23.27-18.213 136.258 15.714 156.951 40.827z" fill="#FEF2E4"/>
    </g>
    <g clip-path="url(#Verification-Failed__clip1)" filter="url(#Verification-Failed__filter0_d)">
      <rect width="88" height="120" rx="8" transform="matrix(.98079 -.19509 .2932 .95605 27 34.168)" fill="#BC9EF2"/>
      <rect width="76" height="106" rx="4" transform="matrix(.98079 -.19509 .2932 .95605 35.23 40.646)" fill="#F8F5FE"/>
      <rect width="16" height="2" rx="1" transform="matrix(.98079 -.19509 .2932 .95605 63.188 30.013)" fill="#9B6EEB"/>
      <rect width="32" height="4" rx="2" transform="matrix(.98079 -.19509 .2932 .95605 50.518 49.777)" fill="#EBE2FB"/>
      <rect width="40" height="4" rx="2" transform="matrix(.98079 -.19509 .2932 .95605 52.864 57.426)" fill="#EBE2FB"/>
      <path d="M68.298 74.854l-4.16 7.48 20.163 11.363-10.399 18.698 8.065 4.546 10.399-18.699 20.163 11.363 4.159-7.479-20.163-11.364 10.399-18.698-8.065-4.545L88.46 86.216 68.298 74.854zm37.571-8.223l-8.065-4.545 1.055 5.433 8.065 4.545-1.055-5.433z" fill="#9E2837"/>
      <path d="M67.243 69.421l-4.16 7.48 1.055 5.433 4.16-7.48-1.055-5.433zm30.561-7.335L87.405 80.785l1.055 5.432 10.4-18.697-1.055-5.433z" fill="#9E2837"/>
      <path d="M87.405 80.785L67.243 69.42l1.054 5.433L88.46 86.217l-1.055-5.432zm8.065 4.545l10.4-18.7 1.055 5.433-10.399 18.699-1.055-5.433zm-32.387-8.429l20.163 11.363 1.055 5.433-20.163-11.363-1.055-5.433z" fill="#9E2837"/>
      <path d="M115.633 96.693L95.47 85.33l1.055 5.432 20.163 11.363-1.055-5.432zm-32.387-8.429l-10.399 18.699 1.055 5.432L84.3 93.697l-1.054-5.433zm8.065 4.546l20.163 11.362 1.054 5.433-20.162-11.363-1.055-5.433z" fill="#9E2837"/>
      <path d="M80.912 111.508l10.399-18.699 1.055 5.433-10.399 18.699-1.055-5.433zm30.562-7.336l4.159-7.48 1.055 5.433-4.159 7.48-1.055-5.433zm-38.627 2.791l8.065 4.545 1.055 5.433-8.065-4.546-1.055-5.432z" fill="#9E2837"/>
      <path fill-rule="evenodd" clip-rule="evenodd" d="M67.243 69.421l-4.16 7.48 20.163 11.363-10.399 18.699 8.065 4.545 10.399-18.699 20.163 11.363 4.159-7.48L95.47 85.33l10.4-18.7-8.065-4.545-10.399 18.699L67.243 69.42z" fill="#D3354A"/>
      <path opacity=".5" fill="#fff" d="M29.55 55.977l110.511 6.372.91 30.193-110.51-6.372zm6.446 37.263l110.511 6.373.367 12.174-110.51-6.372z"/>
    </g>
    <mask id="b" maskUnits="userSpaceOnUse" x="13" y="36" width="171" height="122">
      <path d="M179.952 82.135c20.692 25.113-49.161 78.269-80.248 75.704-31.087-2.566-74.343-39.23-80.022-54.801-5.679-15.572-11.864-49.848 3.319-61.73 23.27-18.213 136.258 15.714 156.951 40.827z" fill="#FEF2E4"/>
    </mask>
    <g mask="url(#b)">
      <mask id="c" maskUnits="userSpaceOnUse" x="101" y="81" width="72" height="76">
        <path d="M160.013 108.881c1.525 3.698 9.009 17.126 12.56 23.377-16.223 28.863-47.599 24.385-52.675 22.043-4.061-1.873-14.103-5.267-18.398-9.301 12.103-2.214 36.415-7.075 40.5-8.5 4.085-1.425 4.37-10.866 3.5-13.5-1.75-3.894-4.312-14.625-4.5-15.5-.234-1.093-6.194-.99-13.081-4.315-6.888-3.326-9.138-10.619-10.794-16.21-1.656-5.59 2.467-5.56 4.404-5.06 1.936.5 22.38 7.321 27.581 9.179 5.201 1.858 8.997 13.164 10.903 17.787z" fill="#F2B9D8"/>
      </mask>
      <g mask="url(#c)">
        <path d="M160.013 108.881c1.525 3.698 9.009 17.126 12.56 23.377-16.223 28.863-47.599 24.385-52.675 22.043-4.061-1.873-13.666-10.41-17.962-14.443 12.104-2.214 37.331-6.999 41.416-8.424 4.086-1.424 3.368-7.049 2.498-9.683-1.75-3.893-5.296-11.899-5.483-12.774-.235-1.093-5.56-2.467-12.448-5.792-6.888-3.326-9.138-10.619-10.794-16.21-1.656-5.59 2.467-5.56 4.404-5.06 1.936.5 22.38 7.321 27.581 9.179 5.201 1.858 8.997 13.164 10.903 17.787z" fill="#F2B9D8"/>
        <path d="M134.103 103.231c-3.486-.9-10.23-5.049-13.166-7.011-9.12 8.664-29.236 30.263-22.937 44.28 6.299 14.017 24.663 17.096 31.331 17.267 3.754.796 12.591-.367 17.912-11.387 5.321-11.021 3.308-20.834 1.637-24.364-2.073-3.977-6.215-12.343-6.202-13.992.015-2.062-4.218-3.67-8.575-4.793z" fill="#EC96C4"/>
        <path d="M122.841 84.835c2.224.987 6.747.535 8.73.186.084-.323.081-1.115-.593-1.702-.844-.734-11.979-3.606-11.745-2.513.234 1.093.828 2.796 3.608 4.029z" fill="#E573B0"/>
      </g>
    </g>
    <circle cx="145.959" cy="63.673" fill="#F8C079" r="3.918"/>
    <circle cx="143.02" cy="165.551" r="3.918" fill="#FCEAD2"/>
    <circle cx="28.408" cy="145.959" fill="#F8C079" r="5.878"/>
  </g>
  <defs>
    <clipPath id="Verification-Failed__clip0">
      <path fill="#fff" d="M0 0h192v192H0z"/>
    </clipPath>
    <clipPath id="Verification-Failed__clip1">
      <path fill="#fff" transform="matrix(.98079 -.19509 .2932 .95605 27 34.168)" d="M0 0h88v120H0z"/>
    </clipPath>
    <filter id="Verification-Failed__filter0_d" x="27" y="17" width="121.494" height="135.894" filterUnits="userSpaceOnUse" color-interpolation-filters="sRGB">
      <feFlood flood-opacity="0" result="BackgroundImageFix"/>
      <feColorMatrix in="SourceAlpha" values="0 0 0 0 0 0 0 0 0 0 0 0 0 0 0 0 0 0 127 0"/>
      <feOffset dy="4"/>
      <feColorMatrix values="0 0 0 0 0.356863 0 0 0 0 0.180392 0 0 0 0 0.670588 0 0 0 1 0"/>
      <feBlend in2="BackgroundImageFix" result="effect1_dropShadow"/>
      <feBlend in="SourceGraphic" in2="effect1_dropShadow" result="shape"/>
    </filter>
  </defs>
</svg>
