<svg width="192" height="192" fill="none" xmlns="http://www.w3.org/2000/svg">
  <g clip-path="url(#Verification-Success__clip0)">
    <path fill="#fff" d="M0 0h192v192H0z"/>
    <path d="M179.136 43.856c13.858 27.184-30.283 102.702-64.63 94.742-34.346-7.961-64.221-46.935-64.685-62.511-.465-15.576 5.692-48.733 27.52-57.128 33.456-12.867 87.938-2.287 101.795 24.897z" fill="#FEFBF6"/>
    <mask id="a" maskUnits="userSpaceOnUse" x="13" y="36" width="171" height="122">
      <path d="M179.952 82.135c20.692 25.113-49.161 78.269-80.248 75.704-31.087-2.566-74.343-39.23-80.022-54.801-5.679-15.572-11.864-49.848 3.319-61.73 23.27-18.213 136.258 15.714 156.951 40.827z" fill="#FEF2E4"/>
    </mask>
    <g mask="url(#a)">
      <path d="M179.952 85.135c20.692 25.113-49.161 78.269-80.248 75.704-31.087-2.566-74.343-39.23-80.022-54.801-5.679-15.572-11.864-49.848 3.319-61.73 23.27-18.213 136.258 15.714 156.951 40.827z" fill="#FEF2E4"/>
    </g>
    <g clip-path="url(#Verification-Success__clip1)" filter="url(#Verification-Success__filter0_d)">
      <rect width="88" height="120" rx="8" transform="matrix(.98079 -.19509 .2932 .95605 27 34.168)" fill="#BC9EF2"/>
      <rect width="76" height="106" rx="4" transform="matrix(.98079 -.19509 .2932 .95605 35.23 40.646)" fill="#F8F5FE"/>
      <rect width="16" height="2" rx="1" transform="matrix(.98079 -.19509 .2932 .95605 63.188 30.013)" fill="#9B6EEB"/>
      <rect width="32" height="4" rx="2" transform="matrix(.98079 -.19509 .2932 .95605 50.518 49.777)" fill="#EBE2FB"/>
      <rect width="40" height="4" rx="2" transform="matrix(.98079 -.19509 .2932 .95605 52.864 57.426)" fill="#EBE2FB"/>
      <path d="M72.754 94.493a.879.879 0 00-1.168.412l-3.678 7.628a.866.866 0 00.41 1.161l21.484 10.221a.878.878 0 001.167-.411l21.427-44.434a.865.865 0 00-.41-1.16l-7.647-3.64a.879.879 0 00-1.168.412l-16.99 35.233a.878.878 0 01-1.167.411l-12.26-5.833z" fill="#5B2EAB"/>
      <path d="M102.455 60.348a.853.853 0 011.122-.395l.732 4.058a.853.853 0 00-1.122.395l-.732-4.058zm8.875 3.073l-7.76-3.722.802 4.365 7.76 3.722-.802-4.365z" fill="#5B2EAB"/>
      <path d="M111.196 63.544c.193.144.335.385.395.64l.971 4.103a1.127 1.127 0 00-.396-.639l-.97-4.104z" fill="#5B2EAB"/>
      <path d="M111.559 64.07c.042.176.049.358.01.519l1.046 4.333a1.13 1.13 0 00-.01-.52l-1.046-4.333zm-9.224-3.935L85.461 95.46l.792 4.3 16.874-35.326-.792-4.3zM71.749 90.106a.854.854 0 00-1.123.395l.732 4.058a.854.854 0 011.122-.395l-.731-4.058z" fill="#5B2EAB"/>
      <path d="M90.371 109.387l21.392-44.737.794 4.318-21.392 44.737-.794-4.318zM70.506 90.288l-3.192 7.58.862 4.343 3.192-7.58-.862-4.343zm13.707 5.537l-12.47-5.973.803 4.372 12.47 5.973-.803-4.372zm-17.032 2.688a.844.844 0 01.143-.573l.618 4.484a.842.842 0 00-.142.573l-.619-4.484zm17.098-2.628a.78.78 0 001.122-.395l.925 4.606a.779.779 0 01-1.122.396l-.925-4.607z" fill="#5B2EAB"/>
      <path d="M67.773 99.213c-.321-.099-.513-.322-.547-.585l.548 4.253c.033.263.226.487.547.586l-.548-4.254zm.014-.13l21.336 10.679.827 4.372-21.336-10.68-.827-4.371zm22.526 10.351a.853.853 0 01-1.122.395l.732 4.058a.853.853 0 001.122-.395l-.732-4.058z" fill="#5B2EAB"/>
      <path fill-rule="evenodd" clip-rule="evenodd" d="M73.025 90.564a2 2 0 00-2.668.94l-2.69 5.617a2 2 0 00.94 2.668l12.033 5.763 9.225 4.419 4.418-9.225 16.81-35.096a2 2 0 00-.94-2.668l-5.617-2.69a2 2 0 00-2.668.94L85.922 94.523a2 2 0 01-2.668.94l-10.23-4.9z" fill="#9B6EEB"/>
      <path opacity=".5" fill="#fff" d="M29.55 55.977l110.511 6.372.91 30.193-110.51-6.372zm6.446 37.263l110.511 6.373.367 12.174-110.51-6.372z"/>
    </g>
    <mask id="b" maskUnits="userSpaceOnUse" x="13" y="36" width="171" height="122">
      <path d="M179.952 82.135c20.692 25.113-49.161 78.269-80.248 75.704-31.087-2.566-74.343-39.23-80.022-54.801-5.679-15.572-11.864-49.848 3.319-61.73 23.27-18.213 136.258 15.714 156.951 40.827z" fill="#FEF2E4"/>
    </mask>
    <g mask="url(#b)">
      <mask id="c" maskUnits="userSpaceOnUse" x="101" y="81" width="72" height="76">
        <path d="M160.013 108.881c1.525 3.698 9.009 17.126 12.56 23.377-16.223 28.863-47.599 24.385-52.675 22.043-4.061-1.873-14.103-5.267-18.398-9.301 12.103-2.214 36.415-7.075 40.5-8.5 4.085-1.425 4.37-10.866 3.5-13.5-1.75-3.894-4.312-14.625-4.5-15.5-.234-1.093-6.194-.99-13.081-4.315-6.888-3.326-9.138-10.619-10.794-16.21-1.656-5.59 2.467-5.56 4.404-5.06 1.936.5 22.38 7.321 27.581 9.179 5.201 1.858 8.997 13.164 10.903 17.787z" fill="#F2B9D8"/>
      </mask>
      <g mask="url(#c)">
        <path d="M160.013 108.881c1.525 3.698 9.009 17.126 12.56 23.377-16.223 28.863-47.599 24.385-52.675 22.043-4.061-1.873-13.666-10.41-17.962-14.443 12.104-2.214 37.331-6.999 41.416-8.424 4.086-1.424 3.368-7.049 2.498-9.683-1.75-3.893-5.296-11.899-5.483-12.774-.235-1.093-5.56-2.467-12.448-5.792-6.888-3.326-9.138-10.619-10.794-16.21-1.656-5.59 2.467-5.56 4.404-5.06 1.936.5 22.38 7.321 27.581 9.179 5.201 1.858 8.997 13.164 10.903 17.787z" fill="#F2B9D8"/>
        <path d="M134.103 103.231c-3.486-.9-10.23-5.049-13.166-7.011-9.12 8.664-29.236 30.263-22.937 44.28 6.299 14.017 24.663 17.096 31.331 17.267 3.754.796 12.591-.367 17.912-11.387 5.321-11.021 3.308-20.834 1.637-24.364-2.073-3.977-6.215-12.343-6.202-13.992.015-2.062-4.218-3.67-8.575-4.793z" fill="#EC96C4"/>
        <path d="M122.841 84.835c2.224.987 6.747.535 8.73.186.084-.323.081-1.115-.593-1.702-.844-.734-11.979-3.606-11.745-2.513.234 1.093.828 2.796 3.608 4.029z" fill="#E573B0"/>
      </g>
    </g>
    <circle cx="145.959" cy="63.673" fill="#F8C079" r="3.918"/>
    <circle cx="143.02" cy="165.551" r="3.918" fill="#FCEAD2"/>
    <circle cx="28.408" cy="145.959" fill="#F8C079" r="5.878"/>
  </g>
  <defs>
    <clipPath id="Verification-Success__clip0">
      <path fill="#fff" d="M0 0h192v192H0z"/>
    </clipPath>
    <clipPath id="Verification-Success__clip1">
      <path fill="#fff" transform="matrix(.98079 -.19509 .2932 .95605 27 34.168)" d="M0 0h88v120H0z"/>
    </clipPath>
    <filter id="Verification-Success__filter0_d" x="27" y="17" width="121.494" height="135.894" filterUnits="userSpaceOnUse" color-interpolation-filters="sRGB">
      <feFlood flood-opacity="0" result="BackgroundImageFix"/>
      <feColorMatrix in="SourceAlpha" values="0 0 0 0 0 0 0 0 0 0 0 0 0 0 0 0 0 0 127 0"/>
      <feOffset dy="4"/>
      <feColorMatrix values="0 0 0 0 0.356863 0 0 0 0 0.180392 0 0 0 0 0.670588 0 0 0 1 0"/>
      <feBlend in2="BackgroundImageFix" result="effect1_dropShadow"/>
      <feBlend in="SourceGraphic" in2="effect1_dropShadow" result="shape"/>
    </filter>
  </defs>
</svg>
