<svg width="192" height="192" fill="none" xmlns="http://www.w3.org/2000/svg">
  <g clip-path="url(#Name=Fingerprint__clip0)">
    <path fill="#fff" d="M0 0h192v192H0z"/>
    <path d="M179.136 43.856c13.858 27.184-30.283 102.702-64.63 94.742-34.346-7.961-64.221-46.935-64.685-62.511-.465-15.576 5.692-48.733 27.52-57.128 33.456-12.867 87.938-2.287 101.795 24.897z" fill="#FEFBF6"/>
    <path d="M156.5 40.5c12.5 33 3 105-20.5 119s-71.329 20-90.5-10.5c-19.171-30.5-33-105.5 3-126.5s95.5-15 108 18z" fill="#FEF2E4"/>
    <g clip-path="url(#Name=Fingerprint__clip1)" fill="#7A5526">
      <path d="M122.782 32.573C114.659 28.877 105.315 27 95.006 27c-10.385 0-19.734 1.877-27.782 5.579a2.67 2.67 0 00-1.306 3.536 2.67 2.67 0 003.535 1.306c7.35-3.376 15.947-5.087 25.552-5.087 9.542 0 18.139 1.711 25.563 5.093a2.673 2.673 0 003.536-1.323 2.67 2.67 0 00-1.322-3.53z"/>
      <path d="M134.243 54.461c-10.811-10.986-24.384-16.794-39.248-16.794-14.806 0-28.368 5.807-39.216 16.789a2.675 2.675 0 00.02 3.776 2.674 2.674 0 003.772-.021C69.4 48.259 81.646 43 94.995 43c13.402 0 25.664 5.259 35.445 15.205a2.667 2.667 0 003.771.027 2.665 2.665 0 00.032-3.77z"/>
      <path d="M94.995 48.333c-3.803 0-7.579.47-11.227 1.398a2.668 2.668 0 00-1.93 3.242 2.673 2.673 0 003.242 1.925 40.363 40.363 0 019.915-1.232c22.059 0 40 17.942 40 40a2.667 2.667 0 005.333 0c0-24.997-20.336-45.333-45.333-45.333zM75.88 55.416a2.67 2.67 0 00-3.648-.955 45.408 45.408 0 00-9.387 7.307c-8.304 8.395-12.98 19.707-13.173 31.861a2.664 2.664 0 002.63 2.704h.042a2.66 2.66 0 002.661-2.624c.171-10.773 4.3-20.784 11.632-28.197a40.063 40.063 0 018.288-6.448 2.669 2.669 0 00.955-3.648z"/>
      <path d="M121.128 70.91A34.681 34.681 0 0094.995 59c-9.301 0-18.021 3.648-24.56 10.267-6.517 6.581-10.101 15.483-10.101 25.195.016 5.738-1.776 12.618-4.987 19.226l-1.499 2.667a2.668 2.668 0 001.019 3.632 2.66 2.66 0 003.632-1.013l1.573-2.805c3.685-7.584 5.616-15.094 5.595-21.846 0-8.165 3.035-15.728 8.555-21.306 5.536-5.6 12.906-8.683 20.773-8.683a29.334 29.334 0 0122.112 10.085 2.673 2.673 0 003.765.256 2.673 2.673 0 00.256-3.766zm13.494 53.498l-3.008-9.84c-1.691-7.717-1.835-15.083-1.926-19.488l-.026-1.413c0-3.952-.667-7.835-1.979-11.541a2.66 2.66 0 00-3.403-1.622 2.664 2.664 0 00-1.621 3.403 29.26 29.26 0 011.669 9.83l.032 1.45c.096 4.597.245 12.293 2.101 20.725l3.051 10.048a2.662 2.662 0 002.555 1.888c.256 0 .517-.037.779-.112a2.67 2.67 0 001.776-3.328z"/>
      <path d="M126.84 136.728l-2.48-7.941c-4.4-13.739-5.221-29.184-5.365-35.12 0-13.232-10.768-24-24-24S71 80.6 71 94.13c.01 2.805-.507 17.626-11.77 33.872a2.668 2.668 0 00.666 3.712 2.674 2.674 0 003.712-.667C75.48 113.933 76.35 98.451 76.333 94.045c0-10.501 8.374-19.04 18.662-19.04 10.293 0 18.666 8.374 18.666 18.731.192 7.744 1.179 22.805 5.616 36.667l2.464 7.909a2.67 2.67 0 002.55 1.872c.261 0 .528-.037.794-.117a2.67 2.67 0 001.755-3.339z"/>
      <path d="M108.328 93.667c0-7.35-5.984-13.334-13.333-13.334-7.35 0-13.333 5.984-13.333 13.435.032.88.624 21.829-16.315 43.872a2.667 2.667 0 004.23 3.248c18.096-23.552 17.445-46.363 17.413-47.221 0-4.41 3.589-8 8-8 4.41 0 8 3.59 8.005 8.059.075 2.987.091 29.93-20.73 56.981a2.666 2.666 0 004.223 3.253c21.979-28.544 21.915-57.184 21.84-60.293z"/>
      <path d="M97.65 93.55c-.069-1.468-1.22-2.635-2.778-2.545a2.673 2.673 0 00-2.55 2.779c0 .037.15 3.941-.842 10.112a2.679 2.679 0 002.213 3.061 2.666 2.666 0 003.056-2.208c1.088-6.768.912-11.024.902-11.2zm-5.231 18.97a2.668 2.668 0 00-3.317 1.797c-3.334 11.259-8.88 21.787-16.475 31.302a2.67 2.67 0 00.421 3.749c.49.395 1.077.581 1.664.581.784 0 1.557-.341 2.085-1.003 8.027-10.048 13.888-21.189 17.424-33.109a2.67 2.67 0 00-1.802-3.317zm25.845 31.952l-3.216-10.213c-1.28-3.83-2.474-7.878-2.48-7.894a2.665 2.665 0 00-2.405-1.909c-1.152-.08-2.171.581-2.608 1.621-.059.139-6 14.107-12.81 24.827a2.667 2.667 0 004.5 2.859c4.123-6.491 7.867-13.952 10.31-19.141.139.426.283.858.427 1.285l3.194 10.165a2.659 2.659 0 003.344 1.744 2.667 2.667 0 001.744-3.344z"/>
    </g>
    <circle cx="37.918" cy="33.918" fill="#F8C079" r="3.918"/>
    <circle cx="143.02" cy="165.551" r="3.918" fill="#FCEAD2"/>
    <circle cx="28.408" cy="145.959" fill="#F8C079" r="5.878"/>
  </g>
  <defs>
    <clipPath id="Name=Fingerprint__clip0">
      <path fill="#fff" d="M0 0h192v192H0z"/>
    </clipPath>
    <clipPath id="Name=Fingerprint__clip1">
      <path fill="#fff" transform="translate(31 27)" d="M0 0h128v128H0z"/>
    </clipPath>
  </defs>
</svg>
