<svg width="192" height="192" fill="none" xmlns="http://www.w3.org/2000/svg">
  <g clip-path="url(#Name=Notifications__clip0)">
    <path fill="#fff" d="M0 0h192v192H0z"/>
    <path d="M179.136 43.856c13.858 27.184-30.283 102.702-64.63 94.742-34.346-7.961-64.221-46.935-64.685-62.511-.465-15.576 5.692-48.733 27.52-57.128 33.456-12.867 87.938-2.287 101.795 24.897z" fill="#FEFBF6"/>
    <path d="M179.952 89.135c20.692 25.113-49.161 78.269-80.248 75.704-31.087-2.566-74.343-39.23-80.022-54.801-5.679-15.572-11.864-49.848 3.319-61.73 23.27-18.213 136.258 15.714 156.951 40.827z" fill="#FEF2E4"/>
    <circle cx="95" cy="123" r="16" fill="#F5AB4C"/>
    <path d="M111 123c0 4.556-19.759 10.743-28 10.5-2.5-3-4-6.625-4-10.5 0-8.837 7.163-16 16-16s16 7.163 16 16z" fill="#D09241"/>
    <mask id="a" maskUnits="userSpaceOnUse" x="48" y="29" width="94" height="96">
      <path fill-rule="evenodd" clip-rule="evenodd" d="M63 61c0 7.626-.364 38.516-13.911 60.79-.84 1.381.125 3.21 1.741 3.21h88.34c1.616 0 2.581-1.829 1.741-3.21C127.364 99.516 127 68.626 127 61c0-17.673-14.327-32-32-32-17.673 0-32 14.327-32 32z" fill="#F5AB4C"/>
    </mask>
    <g mask="url(#a)">
      <path fill-rule="evenodd" clip-rule="evenodd" d="M63 61c0 7.626-.364 38.516-13.911 60.79-.84 1.381.125 3.21 1.741 3.21h88.34c1.616 0 2.581-1.829 1.741-3.21C127.364 99.516 127 68.626 127 61c0-17.673-14.327-32-32-32-17.673 0-32 14.327-32 32z" fill="#F5AB4C"/>
      <path opacity=".5" d="M27 8h69S84 45.5 83.5 81 55 156 55 156H27V8z" fill="#F8C079"/>
    </g>
    <circle cx="155.918" cy="22.918" fill="#F8C079" r="3.918"/>
    <circle cx="143.02" cy="165.551" r="3.918" fill="#FCEAD2"/>
    <circle cx="28.408" cy="145.959" fill="#F8C079" r="5.878"/>
  </g>
  <defs>
    <clipPath id="Name=Notifications__clip0">
      <path fill="#fff" d="M0 0h192v192H0z"/>
    </clipPath>
  </defs>
</svg>
