<svg width="192" height="192" fill="none" xmlns="http://www.w3.org/2000/svg">
  <g clip-path="url(#Name=PIN__clip0)">
    <path fill="#fff" d="M0 0h192v192H0z"/>
    <path d="M172.279 38.958c13.858 27.184-30.284 102.702-64.63 94.742-34.346-7.961-64.222-46.935-64.686-62.511-.464-15.576 5.693-48.733 27.52-57.128 33.456-12.867 87.939-2.287 101.796 24.897z" fill="#FEFBF6"/>
    <path d="M147.429 135.674c7.346 61.224-116.082 41.142-128.345-8.311C6.821 77.909 27.04 41.428 41.633 32.327 56.226 23.225 132.34 6.39 147.428 19.102c23.124 19.484-7.346 55.347.001 116.572z" fill="#FEF2E4"/>
    <circle cx="145.959" cy="151.837" r="3.918" fill="#F8C079"/>
    <circle cx="173.388" cy="55.837" fill="#F8C079" r="5.878"/>
    <rect width="65.284" height="117.551" rx="8" transform="matrix(-.98079 -.19509 -.2932 .95605 149.471 48.124)" fill="#6734C2"/>
    <path d="M146.125 49.772c1.295-4.224-1.167-8.347-5.501-9.209l-48.058-9.56c-4.334-.861-8.897 1.864-10.192 6.089L51.88 136.52c-1.295 4.224 1.168 8.347 5.501 9.209l48.059 9.559c4.333.862 8.896-1.863 10.191-6.088l30.494-99.429z" fill="#BC9EF2"/>
    <rect width="53" height="106" rx="4" transform="matrix(-.98079 -.19509 -.2932 .95605 140.24 48.602)" fill="#F8F5FE"/>
    <rect width="16" height="2" rx="1" transform="matrix(-.98079 -.19509 -.2932 .95605 123.072 40.115)" fill="#9B6EEB"/>
    <rect width="32" height="4" rx="2" transform="matrix(-.98079 -.19509 -.2932 .95605 120.952 55.733)" fill="#EBE2FB"/>
    <rect width="40" height="4" rx="2" transform="matrix(-.98079 -.19509 -.2932 .95605 125.607 65.382)" fill="#EBE2FB"/>
    <path opacity=".5" d="M141.5 64L73 68.5l-9.5 31L132 95l9.5-31zm-11 36L62 103l-4.5 13 69.5-4.5 3.5-11.5z" fill="#fff"/>
    <circle r="6" transform="matrix(-.94984 -.28175 -.33351 .94716 85.7 89.374)" fill="#DDCEF8"/>
    <circle r="6" transform="matrix(-.94984 -.28175 -.33351 .94716 81.7 104.373)" fill="#DDCEF8"/>
    <circle r="6" transform="matrix(-.94984 -.28175 -.33351 .94716 77.7 119.373)" fill="#DDCEF8"/>
    <circle r="6" transform="matrix(-.94984 -.28175 -.33351 .94716 99.7 92.374)" fill="#DDCEF8"/>
    <circle r="6" transform="matrix(-.94984 -.28175 -.33351 .94716 95.7 107.373)" fill="#DDCEF8"/>
    <circle r="6" transform="matrix(-.94984 -.28175 -.33351 .94716 91.7 122.373)" fill="#DDCEF8"/>
    <circle r="6" transform="matrix(-.94984 -.28175 -.33351 .94716 113.7 95.374)" fill="#DDCEF8"/>
    <circle r="6" transform="matrix(-.94984 -.28175 -.33351 .94716 109.7 110.373)" fill="#DDCEF8"/>
    <circle r="6" transform="matrix(-.94984 -.28175 -.33351 .94716 105.7 125.373)" fill="#DDCEF8"/>
    <mask id="a" maskUnits="userSpaceOnUse" x="26" y="91" width="69" height="75">
      <path d="M39.435 118.534c-1.524 3.698-9.008 17.126-12.559 23.377 16.223 28.863 47.599 24.385 52.675 22.043 4.06-1.873 10.654-3.42 14.949-7.454C82 154 62.5 150 58 149c-7-1.556-4.921-13.713-4.051-16.347 1.75-3.894 4.312-14.625 4.5-15.5.234-1.093 6.193-.99 13.081-4.315 6.888-3.326 9.137-10.619 10.794-16.21 1.656-5.59-2.467-5.56-4.404-5.06-1.936.5-22.38 7.321-27.581 9.179-5.201 1.858-8.998 13.164-10.904 17.787z" fill="#F2B9D8"/>
    </mask>
    <g mask="url(#a)">
      <path d="M39.435 118.534c-1.524 3.698-9.008 17.126-12.56 23.377 16.224 28.863 47.6 24.385 52.676 22.043 4.06-1.873 13.666-10.409 17.961-14.443-12.103-2.214-37.33-6.999-41.416-8.424-4.085-1.424-3.367-7.049-2.497-9.683 1.75-3.893 5.296-11.899 5.483-12.774.234-1.093 5.56-2.467 12.448-5.792 6.888-3.326 9.137-10.619 10.793-16.21 1.657-5.59-2.466-5.56-4.403-5.06-1.937.5-22.38 7.321-27.581 9.179-5.201 1.858-8.998 13.164-10.904 17.787z" fill="#F2B9D8"/>
      <path d="M65.346 112.884c3.486-.9 10.23-5.049 13.166-7.011 9.12 8.664 29.235 30.263 22.937 44.28-6.3 14.017-24.663 17.096-31.331 17.267-3.754.796-12.591-.367-17.912-11.387-5.321-11.021-3.308-20.834-1.637-24.364 2.073-3.977 6.214-12.343 6.202-13.992-.015-2.061 4.217-3.67 8.575-4.793z" fill="#EC96C4"/>
      <path d="M76.608 94.488c-2.224.987-6.747.535-8.73.186-.084-.323-.082-1.115.593-1.702.844-.734 11.98-3.606 11.745-2.513-.235 1.093-.828 2.796-3.608 4.029z" fill="#E573B0"/>
    </g>
  </g>
  <defs>
    <clipPath id="Name=PIN__clip0">
      <path fill="#fff" d="M0 0h192v192H0z"/>
    </clipPath>
  </defs>
</svg>
