<svg width="192" height="192" fill="none" xmlns="http://www.w3.org/2000/svg">
  <g clip-path="url(#Name=Success__clip0)">
    <path fill="#fff" d="M0 0h192v192H0z"/>
    <path d="M179.136 43.856c13.858 27.184-30.283 102.702-64.63 94.742-34.346-7.961-64.221-46.935-64.685-62.511-.465-15.576 5.692-48.733 27.52-57.128 33.456-12.867 87.938-2.287 101.795 24.897z" fill="#FEFBF6"/>
    <path d="M179.952 89.135c20.692 25.113-49.161 78.269-80.248 75.704-31.087-2.566-74.343-39.23-80.022-54.801-5.679-15.572-11.864-49.848 3.319-61.73 23.27-18.213 136.258 15.714 156.951 40.827z" fill="#FEF2E4"/>
    <path d="M179.952 92.135c20.692 25.113-49.161 78.269-80.248 75.704-31.087-2.566-74.343-39.23-80.022-54.801-5.679-15.572-11.864-49.848 3.319-61.73 23.27-18.213 136.258 15.714 156.951 40.827z" fill="#FEF2E4"/>
    <path d="M59.283 91.006a2 2 0 00-2.829 0l-13.72 13.721a1.997 1.997 0 000 2.828l38.543 38.544a2 2 0 002.829 0l79.915-79.916a1.997 1.997 0 000-2.828l-13.72-13.72a2 2 0 00-2.828 0L84.106 113a2 2 0 01-2.829 0L59.283 91.006z" fill="#6734C2"/>
    <path d="M149.037 39.758a2 2 0 012.828 0l-1.564 9.876a2 2 0 00-2.828 0l1.564-9.877z" fill="#6734C2"/>
    <path d="M165.586 53.478l-13.721-13.72-1.564 9.876 13.72 13.72 1.565-9.876z" fill="#6734C2"/>
    <path d="M165.586 53.478c.471.47.658 1.118.561 1.729l-1.565 9.876a1.995 1.995 0 00-.561-1.728l1.565-9.877z" fill="#6734C2"/>
    <path d="M166.147 55.207c-.064.402-.251.79-.561 1.1l-1.565 9.876a1.98 1.98 0 00.561-1.1l1.565-9.876zm-17.11-15.45L85.67 103.124l-1.564 9.877 63.367-63.367 1.564-9.877zM60.847 81.13a2 2 0 00-2.828 0l-1.565 9.876a2 2 0 012.829 0l1.564-9.877z" fill="#6734C2"/>
    <path d="M85.67 136.222l79.916-79.916-1.565 9.877L84.106 146.1l1.564-9.877zM58.019 81.13l-13.72 13.72-1.565 9.877 13.72-13.72 1.565-9.878zm24.823 21.994L60.847 81.129l-1.564 9.877 21.995 21.995 1.564-9.877z" fill="#6734C2"/>
    <path d="M43.737 95.95c.064-.403.251-.79.561-1.1l-1.564 9.877c-.31.31-.497.697-.561 1.099l1.564-9.877zm39.105 7.174a2 2 0 002.828 0l-1.564 9.877a2 2 0 01-2.828 0l1.564-9.877z" fill="#6734C2"/>
    <path d="M44.298 97.678a1.997 1.997 0 01-.56-1.728l-1.565 9.876c-.097.611.09 1.258.56 1.729l1.565-9.877z" fill="#6734C2"/>
    <path d="M44.298 97.678l38.544 38.544-1.565 9.877-38.543-38.544 1.564-9.877zm41.372 38.544a2 2 0 01-2.828 0l-1.564 9.877a2 2 0 002.828 0l1.564-9.877z" fill="#6734C2"/>
    <path fill-rule="evenodd" clip-rule="evenodd" d="M60.847 81.13a2 2 0 00-2.828 0l-13.72 13.72a2 2 0 000 2.828l38.543 38.544a2 2 0 002.828 0l15.135-15.135 64.781-64.78a2 2 0 000-2.83l-13.721-13.72a2 2 0 00-2.828 0L85.67 103.124a2 2 0 01-2.828 0L60.847 81.129z" fill="#9B6EEB"/>
    <mask id="a" maskUnits="userSpaceOnUse" x="43" y="14" width="125" height="125">
      <path fill-rule="evenodd" clip-rule="evenodd" d="M60.963 81.61a2 2 0 00-2.828 0l-13.72 13.72a2 2 0 000 2.828l38.543 38.544a2 2 0 002.828 0l15.135-15.135 64.781-64.78a2 2 0 000-2.83l-13.721-13.72a2 2 0 00-2.828 0l-63.367 63.367a2 2 0 01-2.828 0L60.963 81.609z" fill="#9B6EEB"/>
    </mask>
    <g mask="url(#a)" fill="#fff" fill-opacity=".2">
      <path d="M108.21 42.5l7.5-7.5 57.276 57.275-7.5 7.5zM92 59.29l13.5-13.5 57.276 57.276-13.5 13.5z"/>
    </g>
    <circle cx="78.367" cy="40.163" fill="#F8C079" r="3.918"/>
    <circle cx="143.02" cy="165.551" r="3.918" fill="#FCEAD2"/>
    <circle cx="28.408" cy="145.959" fill="#F8C079" r="5.878"/>
  </g>
  <defs>
    <clipPath id="Name=Success__clip0">
      <path fill="#fff" d="M0 0h192v192H0z"/>
    </clipPath>
  </defs>
</svg>
