<svg width="192" height="192" fill="none" xmlns="http://www.w3.org/2000/svg">
  <g clip-path="url(#Name=Returns__clip0)">
    <path fill="#fff" d="M0 0h192v192H0z"/>
    <path d="M172.279 38.958c13.858 27.184-30.284 102.702-64.63 94.742-34.346-7.961-64.222-46.935-64.686-62.511-.464-15.576 5.693-48.733 27.52-57.128 33.456-12.867 87.939-2.287 101.796 24.897z" fill="#F8F8FB"/>
    <path d="M183.913 111.353c20.328 27.853-55.603 79.248-88.006 74.475-32.402-4.773-75.734-46.306-80.853-63.101-5.12-16.795-9.777-53.344 6.744-64.862 25.321-17.654 141.787 25.634 162.115 53.488z" fill="#F0F2F9"/>
    <path d="M84.255 28.127l5.745 6-39 39H39l45.255-45zm21.618 0l-5.746 6 39 39h12l-45.254-45z" fill="#B3B8CC"/>
    <path d="M39 73h112v80a8 8 0 01-8 8H47a8 8 0 01-8-8V73z" fill="#B3B8CC"/>
    <path d="M87 73.127h16v40l-8-4.5-8 4.5v-40z" fill="#E0E1EA"/>
    <path fill-rule="evenodd" clip-rule="evenodd" d="M133.394 81.127c-.77-1.333-2.695-1.333-3.464 0l-7.795 13.5a1 1 0 00.866 1.5h2.661v19a1 1 0 001 1h10a1 1 0 001-1v-19h2.66a1 1 0 00.866-1.5l-7.794-13.5z" fill="#8E93AB"/>
    <path d="M46 66.127h12l-7 7H39l7-7zm98.127 0h-12l7 7h12l-7-7z" fill="#8E93AB"/>
    <circle cx="145" cy="35" r="4" fill="#B3B8CC"/>
    <circle cx="65.633" cy="17.633" fill="#8E93AB" r="3.918"/>
    <circle cx="170.449" cy="85.225" fill="#8E93AB" r="5.878"/>
  </g>
  <defs>
    <clipPath id="Name=Returns__clip0">
      <path fill="#fff" d="M0 0h192v192H0z"/>
    </clipPath>
  </defs>
</svg>
