<svg width="192" height="192" fill="none" xmlns="http://www.w3.org/2000/svg">
  <g clip-path="url(#Name=Shipping__clip0)">
    <path fill="#fff" d="M0 0h192v192H0z"/>
    <path d="M172.279 38.958c13.858 27.184-30.284 102.702-64.63 94.742-34.346-7.961-64.222-46.935-64.686-62.511-.464-15.576 5.693-48.733 27.52-57.128 33.456-12.867 87.939-2.287 101.796 24.897z" fill="#F8F8FB"/>
    <path d="M151.837 157.714c-21.202 26.297-129.832 15.705-132.753-30.351-2.92-46.057 28.037-81.037 42.63-90.138 14.594-9.102 44.574-25.142 59.661-12.43 23.124 19.484 51.663 106.623 30.462 132.919z" fill="#F0F2F9"/>
    <ellipse cx="97" cy="158.5" rx="35" ry="4.5" fill="#E0E1EA"/>
    <rect x="74.187" y="90.301" width="56" height="56" rx="4" transform="rotate(-30 74.187 90.301)" fill="#8E93AB"/>
    <rect x="91.794" y="144.799" width="68" height="8" rx="4" transform="rotate(-30 91.794 144.799)" fill="#B3B8CC"/>
    <rect x="50.222" y="56.794" width="105" height="8" rx="4" transform="rotate(60 50.222 56.794)" fill="#B3B8CC"/>
    <rect x="35.899" y="54.672" width="17" height="8" rx="4" transform="rotate(15 35.899 54.672)" fill="#B3B8CC"/>
    <rect x="52.187" y="52.196" width="40" height="40" rx="4" transform="rotate(-30 52.187 52.196)" fill="#8E93AB"/>
    <path fill="#B3B8CC" d="M88.043 82.301l20.785-12 6 10.392-20.785 12zM64.311 45.196l10.392-6 6 10.392-10.392 6z"/>
    <circle cx="97.258" cy="146.263" r="12" transform="rotate(-30 97.258 146.263)" fill="#8E93AB"/>
    <circle cx="97.258" cy="146.263" r="6" transform="rotate(-30 97.258 146.263)" fill="#F8F8FB"/>
    <circle cx="23.51" cy="43.102" r="3.918" fill="#8E93AB"/>
    <circle cx="157.714" cy="141.061" fill="#8E93AB" r="5.878"/>
  </g>
  <defs>
    <clipPath id="Name=Shipping__clip0">
      <path fill="#fff" d="M0 0h192v192H0z"/>
    </clipPath>
  </defs>
</svg>
