<svg width="192" height="192" fill="none" xmlns="http://www.w3.org/2000/svg">
  <g clip-path="url(#Name=Tracking__clip0)">
    <path fill="#fff" d="M0 0h192v192H0z"/>
    <path d="M172.279 38.958c13.858 27.184-30.284 102.702-64.63 94.742-34.346-7.961-64.222-46.935-64.686-62.511-.464-15.576 5.693-48.733 27.52-57.128 33.456-12.867 87.939-2.287 101.796 24.897z" fill="#F8F8FB"/>
    <path d="M147.429 135.673c7.346 61.225-116.082 41.143-128.345-8.31C6.821 77.909 27.04 41.428 41.633 32.327 56.226 23.225 132.34 6.39 147.428 19.102c23.124 19.484-7.346 55.347.001 116.571z" fill="#F0F2F9"/>
    <circle cx="145.959" cy="151.837" r="3.918" fill="#8E93AB"/>
    <circle cx="173.388" cy="55.837" fill="#8E93AB" r="5.878"/>
    <rect width="65.284" height="119.982" rx="8" transform="matrix(-.98079 -.19509 -.2932 .95605 148.471 46.124)" fill="#555C7C"/>
    <g clip-path="url(#Name=Tracking__clip1)">
      <rect width="65" height="120" rx="8" transform="matrix(-.98079 -.19509 -.2932 .95605 148.471 42.124)" fill="#C8CAD9"/>
      <rect width="53" height="106" rx="4" transform="matrix(-.98079 -.19509 -.2932 .95605 140.24 48.602)" fill="#F8F8FB"/>
      <rect width="16" height="2" rx="1" transform="matrix(-.98079 -.19509 -.2932 .95605 123.071 40.115)" fill="#8E93AB"/>
      <rect width="32" height="4" rx="2" transform="matrix(-.98079 -.19509 -.2932 .95605 120.952 55.733)" fill="#8E93AB"/>
      <rect width="40" height="4" rx="2" transform="matrix(-.98079 -.19509 -.2932 .95605 125.607 65.382)" fill="#8E93AB"/>
      <path opacity=".5" fill="#fff" d="M145.92 63.933L35.409 70.305l-.91 30.193 110.51-6.372zm-6.446 34.264l-110.511 6.372-.367 12.175 110.51-6.373z"/>
      <path d="M93.907 86.122l15.5 2.5-25 22 18.5 19.5" stroke="#C8CAD9" stroke-width="2" stroke-linecap="round" stroke-linejoin="round"/>
      <path d="M99.907 75.122c0 3.314-6 11-6 11s-6-7.686-6-11a6 6 0 0112 0zm9 44c0 3.314-6 11-6 11s-6-7.686-6-11a6 6 0 0112 0z" fill="#8E93AB"/>
      <circle cx="93.907" cy="75.122" r="3" fill="#fff"/>
      <circle cx="102.907" cy="119.122" r="3" fill="#fff"/>
    </g>
    <mask id="a" maskUnits="userSpaceOnUse" x="17" y="90" width="83" height="86">
      <path d="M39.435 118.534c-1.524 3.698-9.008 17.126-12.56 23.377 16.224 28.863 47.6 24.385 52.675 22.043 4.061-1.873 10.155-2.92 14.45-6.954-13-2.5-33.303-6.951-37.5-8-8-2-3.421-13.713-2.551-16.347 1.75-3.894 4.312-14.625 4.5-15.5.234-1.093 6.193-.99 13.08-4.315 6.889-3.326 9.138-10.619 10.794-16.21 1.657-5.59-2.466-5.56-4.403-5.06-1.937.5-22.38 7.321-27.581 9.179-5.201 1.858-8.998 13.164-10.904 17.787z" fill="#F2B9D8"/>
    </mask>
    <g mask="url(#a)">
      <path d="M39.435 118.534c-1.525 3.698-9.008 17.126-12.56 23.377 16.223 28.863 47.6 24.385 52.675 22.043 4.061-1.873 13.667-10.409 17.962-14.443-12.103-2.214-37.33-6.999-41.416-8.424-4.085-1.424-3.367-7.049-2.497-9.683 1.75-3.893 5.296-11.899 5.483-12.774.234-1.093 5.56-2.467 12.448-5.792 6.888-3.326 9.137-10.619 10.793-16.21 1.657-5.59-2.466-5.56-4.403-5.06-1.937.5-22.38 7.321-27.581 9.179-5.201 1.858-8.998 13.164-10.904 17.787z" fill="#C8CAD9"/>
      <path d="M65.346 112.884c3.485-.899 10.23-5.049 13.166-7.011 9.12 8.664 29.235 30.263 22.936 44.28-6.298 14.017-24.662 17.096-31.33 17.267-3.754.796-12.591-.367-17.912-11.387-5.321-11.021-3.309-20.834-1.637-24.364 2.072-3.977 6.214-12.343 6.202-13.992-.015-2.061 4.217-3.669 8.575-4.793z" fill="#B3B8CC"/>
      <path d="M76.608 94.488c-2.225.987-6.747.535-8.73.186-.084-.323-.082-1.115.593-1.702.843-.734 11.979-3.606 11.745-2.513-.235 1.093-.828 2.796-3.608 4.029z" fill="#8E93AB"/>
    </g>
  </g>
  <defs>
    <clipPath id="Name=Tracking__clip0">
      <path fill="#fff" d="M0 0h192v192H0z"/>
    </clipPath>
    <clipPath id="Name=Tracking__clip1">
      <path fill="#fff" transform="matrix(-.98079 -.19509 -.2932 .95605 148.471 42.124)" d="M0 0h65.284v119.982H0z"/>
    </clipPath>
  </defs>
</svg>
